<mxfile host="app.diagrams.net" modified="2021-03-24T17:48:40.331Z" agent="5.0 (Windows NT 10.0; Win64; x64) AppleWebKit/537.36 (KHTML, like Gecko) Chrome/89.0.4389.90 Safari/537.36" etag="DPGQnMcJNyHVw4wN712V" version="14.5.1" type="github" pages="5">
  <diagram id="C5RBs43oDa-KdzZeNtuy" name="Builder">
    <mxGraphModel dx="1422" dy="762" grid="1" gridSize="10" guides="1" tooltips="1" connect="1" arrows="1" fold="1" page="1" pageScale="1" pageWidth="827" pageHeight="1169" math="0" shadow="0">
      <root>
        <mxCell id="WIyWlLk6GJQsqaUBKTNV-0" />
        <mxCell id="WIyWlLk6GJQsqaUBKTNV-1" parent="WIyWlLk6GJQsqaUBKTNV-0" />
        <mxCell id="zkfFHV4jXpPFQw0GAbJ--0" value="HealthCare" style="swimlane;fontStyle=0;align=center;verticalAlign=top;childLayout=stackLayout;horizontal=1;startSize=26;horizontalStack=0;resizeParent=1;resizeLast=0;collapsible=1;marginBottom=0;rounded=0;shadow=0;strokeWidth=1;" parent="WIyWlLk6GJQsqaUBKTNV-1" vertex="1">
          <mxGeometry x="110" y="120" width="190" height="170" as="geometry">
            <mxRectangle x="230" y="140" width="160" height="26" as="alternateBounds" />
          </mxGeometry>
        </mxCell>
        <mxCell id="zkfFHV4jXpPFQw0GAbJ--1" value="-plannedPatient: boolean" style="text;align=left;verticalAlign=top;spacingLeft=4;spacingRight=4;overflow=hidden;rotatable=0;points=[[0,0.5],[1,0.5]];portConstraint=eastwest;" parent="zkfFHV4jXpPFQw0GAbJ--0" vertex="1">
          <mxGeometry y="26" width="190" height="26" as="geometry" />
        </mxCell>
        <mxCell id="zkfFHV4jXpPFQw0GAbJ--2" value="-patientNameSurname:String" style="text;align=left;verticalAlign=top;spacingLeft=4;spacingRight=4;overflow=hidden;rotatable=0;points=[[0,0.5],[1,0.5]];portConstraint=eastwest;rounded=0;shadow=0;html=0;" parent="zkfFHV4jXpPFQw0GAbJ--0" vertex="1">
          <mxGeometry y="52" width="190" height="26" as="geometry" />
        </mxCell>
        <mxCell id="zkfFHV4jXpPFQw0GAbJ--3" value="-age: int" style="text;align=left;verticalAlign=top;spacingLeft=4;spacingRight=4;overflow=hidden;rotatable=0;points=[[0,0.5],[1,0.5]];portConstraint=eastwest;rounded=0;shadow=0;html=0;" parent="zkfFHV4jXpPFQw0GAbJ--0" vertex="1">
          <mxGeometry y="78" width="190" height="26" as="geometry" />
        </mxCell>
        <mxCell id="jEP0me96f9gmyyHv9vdl-2" value="- treatment: String" style="text;align=left;verticalAlign=top;spacingLeft=4;spacingRight=4;overflow=hidden;rotatable=0;points=[[0,0.5],[1,0.5]];portConstraint=eastwest;rounded=0;shadow=0;html=0;" vertex="1" parent="zkfFHV4jXpPFQw0GAbJ--0">
          <mxGeometry y="104" width="190" height="26" as="geometry" />
        </mxCell>
        <mxCell id="zkfFHV4jXpPFQw0GAbJ--4" value="" style="line;html=1;strokeWidth=1;align=left;verticalAlign=middle;spacingTop=-1;spacingLeft=3;spacingRight=3;rotatable=0;labelPosition=right;points=[];portConstraint=eastwest;" parent="zkfFHV4jXpPFQw0GAbJ--0" vertex="1">
          <mxGeometry y="130" width="190" height="10" as="geometry" />
        </mxCell>
        <mxCell id="jEP0me96f9gmyyHv9vdl-13" value="+HealthCare(BuilderHealthCare)" style="text;align=left;verticalAlign=top;spacingLeft=4;spacingRight=4;overflow=hidden;rotatable=0;points=[[0,0.5],[1,0.5]];portConstraint=eastwest;" vertex="1" parent="zkfFHV4jXpPFQw0GAbJ--0">
          <mxGeometry y="140" width="190" height="26" as="geometry" />
        </mxCell>
        <mxCell id="zkfFHV4jXpPFQw0GAbJ--17" value="BuilderHealthCare" style="swimlane;fontStyle=0;align=center;verticalAlign=top;childLayout=stackLayout;horizontal=1;startSize=26;horizontalStack=0;resizeParent=1;resizeLast=0;collapsible=1;marginBottom=0;rounded=0;shadow=0;strokeWidth=1;" parent="WIyWlLk6GJQsqaUBKTNV-1" vertex="1">
          <mxGeometry x="428" y="120" width="332" height="250" as="geometry">
            <mxRectangle x="550" y="140" width="160" height="26" as="alternateBounds" />
          </mxGeometry>
        </mxCell>
        <mxCell id="jEP0me96f9gmyyHv9vdl-4" value="-plannedPatient: boolean" style="text;align=left;verticalAlign=top;spacingLeft=4;spacingRight=4;overflow=hidden;rotatable=0;points=[[0,0.5],[1,0.5]];portConstraint=eastwest;" vertex="1" parent="zkfFHV4jXpPFQw0GAbJ--17">
          <mxGeometry y="26" width="332" height="26" as="geometry" />
        </mxCell>
        <mxCell id="jEP0me96f9gmyyHv9vdl-5" value="-patientNameSurname:String" style="text;align=left;verticalAlign=top;spacingLeft=4;spacingRight=4;overflow=hidden;rotatable=0;points=[[0,0.5],[1,0.5]];portConstraint=eastwest;rounded=0;shadow=0;html=0;" vertex="1" parent="zkfFHV4jXpPFQw0GAbJ--17">
          <mxGeometry y="52" width="332" height="26" as="geometry" />
        </mxCell>
        <mxCell id="jEP0me96f9gmyyHv9vdl-7" value="- treatment: String" style="text;align=left;verticalAlign=top;spacingLeft=4;spacingRight=4;overflow=hidden;rotatable=0;points=[[0,0.5],[1,0.5]];portConstraint=eastwest;rounded=0;shadow=0;html=0;" vertex="1" parent="zkfFHV4jXpPFQw0GAbJ--17">
          <mxGeometry y="78" width="332" height="26" as="geometry" />
        </mxCell>
        <mxCell id="jEP0me96f9gmyyHv9vdl-6" value="-age: int" style="text;align=left;verticalAlign=top;spacingLeft=4;spacingRight=4;overflow=hidden;rotatable=0;points=[[0,0.5],[1,0.5]];portConstraint=eastwest;rounded=0;shadow=0;html=0;" vertex="1" parent="zkfFHV4jXpPFQw0GAbJ--17">
          <mxGeometry y="104" width="332" height="26" as="geometry" />
        </mxCell>
        <mxCell id="zkfFHV4jXpPFQw0GAbJ--23" value="" style="line;html=1;strokeWidth=1;align=left;verticalAlign=middle;spacingTop=-1;spacingLeft=3;spacingRight=3;rotatable=0;labelPosition=right;points=[];portConstraint=eastwest;" parent="zkfFHV4jXpPFQw0GAbJ--17" vertex="1">
          <mxGeometry y="130" width="332" height="10" as="geometry" />
        </mxCell>
        <mxCell id="zkfFHV4jXpPFQw0GAbJ--24" value="+build()" style="text;align=left;verticalAlign=top;spacingLeft=4;spacingRight=4;overflow=hidden;rotatable=0;points=[[0,0.5],[1,0.5]];portConstraint=eastwest;" parent="zkfFHV4jXpPFQw0GAbJ--17" vertex="1">
          <mxGeometry y="140" width="332" height="26" as="geometry" />
        </mxCell>
        <mxCell id="jEP0me96f9gmyyHv9vdl-9" value="+getters and setters" style="text;align=left;verticalAlign=top;spacingLeft=4;spacingRight=4;overflow=hidden;rotatable=0;points=[[0,0.5],[1,0.5]];portConstraint=eastwest;" vertex="1" parent="zkfFHV4jXpPFQw0GAbJ--17">
          <mxGeometry y="166" width="332" height="26" as="geometry" />
        </mxCell>
        <mxCell id="jEP0me96f9gmyyHv9vdl-10" value="+toString()" style="text;align=left;verticalAlign=top;spacingLeft=4;spacingRight=4;overflow=hidden;rotatable=0;points=[[0,0.5],[1,0.5]];portConstraint=eastwest;" vertex="1" parent="zkfFHV4jXpPFQw0GAbJ--17">
          <mxGeometry y="192" width="332" height="26" as="geometry" />
        </mxCell>
        <mxCell id="jEP0me96f9gmyyHv9vdl-14" value="+BuilderHealthCare(plannedPatient,patientNameSurname)" style="text;align=left;verticalAlign=top;spacingLeft=4;spacingRight=4;overflow=hidden;rotatable=0;points=[[0,0.5],[1,0.5]];portConstraint=eastwest;" vertex="1" parent="zkfFHV4jXpPFQw0GAbJ--17">
          <mxGeometry y="218" width="332" height="26" as="geometry" />
        </mxCell>
        <mxCell id="jEP0me96f9gmyyHv9vdl-8" value="" style="endArrow=diamondThin;endFill=0;endSize=24;html=1;entryX=1;entryY=0.5;entryDx=0;entryDy=0;exitX=0;exitY=0.5;exitDx=0;exitDy=0;" edge="1" parent="WIyWlLk6GJQsqaUBKTNV-1" source="jEP0me96f9gmyyHv9vdl-7" target="zkfFHV4jXpPFQw0GAbJ--3">
          <mxGeometry width="160" relative="1" as="geometry">
            <mxPoint x="250" y="390" as="sourcePoint" />
            <mxPoint x="410" y="390" as="targetPoint" />
            <Array as="points">
              <mxPoint x="360" y="211" />
            </Array>
          </mxGeometry>
        </mxCell>
        <mxCell id="12zL_Xcchh1AK1qFlKAl-0" value="" style="endArrow=open;startArrow=circlePlus;endFill=0;startFill=0;endSize=8;html=1;exitX=1;exitY=0.5;exitDx=0;exitDy=0;" edge="1" parent="WIyWlLk6GJQsqaUBKTNV-1" source="jEP0me96f9gmyyHv9vdl-2" target="jEP0me96f9gmyyHv9vdl-6">
          <mxGeometry width="160" relative="1" as="geometry">
            <mxPoint x="330" y="390" as="sourcePoint" />
            <mxPoint x="490" y="390" as="targetPoint" />
          </mxGeometry>
        </mxCell>
      </root>
    </mxGraphModel>
  </diagram>
  <diagram id="-gxCL9OwaIHl6GA2W5yr" name="Factory">
    <mxGraphModel dx="1422" dy="762" grid="1" gridSize="10" guides="1" tooltips="1" connect="1" arrows="1" fold="1" page="1" pageScale="1" pageWidth="850" pageHeight="1100" math="0" shadow="0">
      <root>
        <mxCell id="O7Utzwy5mZE7YiG23hii-0" />
        <mxCell id="O7Utzwy5mZE7YiG23hii-1" parent="O7Utzwy5mZE7YiG23hii-0" />
        <mxCell id="O7Utzwy5mZE7YiG23hii-6" value="GromPotion" style="swimlane;fontStyle=1;align=center;verticalAlign=top;childLayout=stackLayout;horizontal=1;startSize=26;horizontalStack=0;resizeParent=1;resizeParentMax=0;resizeLast=0;collapsible=1;marginBottom=0;" vertex="1" parent="O7Utzwy5mZE7YiG23hii-1">
          <mxGeometry x="200" y="240" width="160" height="54" as="geometry" />
        </mxCell>
        <mxCell id="O7Utzwy5mZE7YiG23hii-17" value="+takeThePotion(String)" style="text;strokeColor=none;fillColor=none;align=left;verticalAlign=top;spacingLeft=4;spacingRight=4;overflow=hidden;rotatable=0;points=[[0,0.5],[1,0.5]];portConstraint=eastwest;" vertex="1" parent="O7Utzwy5mZE7YiG23hii-6">
          <mxGeometry y="26" width="160" height="26" as="geometry" />
        </mxCell>
        <mxCell id="O7Utzwy5mZE7YiG23hii-8" value="" style="line;strokeWidth=1;fillColor=none;align=left;verticalAlign=middle;spacingTop=-1;spacingLeft=3;spacingRight=3;rotatable=0;labelPosition=right;points=[];portConstraint=eastwest;" vertex="1" parent="O7Utzwy5mZE7YiG23hii-6">
          <mxGeometry y="52" width="160" height="2" as="geometry" />
        </mxCell>
        <mxCell id="O7Utzwy5mZE7YiG23hii-11" value="&lt;&lt;PotionInterface&gt;&gt;" style="swimlane;fontStyle=1;align=center;verticalAlign=top;childLayout=stackLayout;horizontal=1;startSize=26;horizontalStack=0;resizeParent=1;resizeParentMax=0;resizeLast=0;collapsible=1;marginBottom=0;" vertex="1" parent="O7Utzwy5mZE7YiG23hii-1">
          <mxGeometry x="320" y="120" width="160" height="60" as="geometry" />
        </mxCell>
        <mxCell id="O7Utzwy5mZE7YiG23hii-12" value="+takeThePotion(String)" style="text;strokeColor=none;fillColor=none;align=left;verticalAlign=top;spacingLeft=4;spacingRight=4;overflow=hidden;rotatable=0;points=[[0,0.5],[1,0.5]];portConstraint=eastwest;" vertex="1" parent="O7Utzwy5mZE7YiG23hii-11">
          <mxGeometry y="26" width="160" height="26" as="geometry" />
        </mxCell>
        <mxCell id="O7Utzwy5mZE7YiG23hii-13" value="" style="line;strokeWidth=1;fillColor=none;align=left;verticalAlign=middle;spacingTop=-1;spacingLeft=3;spacingRight=3;rotatable=0;labelPosition=right;points=[];portConstraint=eastwest;" vertex="1" parent="O7Utzwy5mZE7YiG23hii-11">
          <mxGeometry y="52" width="160" height="8" as="geometry" />
        </mxCell>
        <mxCell id="O7Utzwy5mZE7YiG23hii-15" value="" style="endArrow=block;dashed=1;endFill=0;endSize=12;html=1;" edge="1" parent="O7Utzwy5mZE7YiG23hii-1" source="O7Utzwy5mZE7YiG23hii-6">
          <mxGeometry width="160" relative="1" as="geometry">
            <mxPoint x="220" y="400" as="sourcePoint" />
            <mxPoint x="320" y="157" as="targetPoint" />
            <Array as="points">
              <mxPoint x="280" y="157" />
            </Array>
          </mxGeometry>
        </mxCell>
        <mxCell id="O7Utzwy5mZE7YiG23hii-16" value="" style="endArrow=block;dashed=1;endFill=0;endSize=12;html=1;entryX=1;entryY=0.5;entryDx=0;entryDy=0;" edge="1" parent="O7Utzwy5mZE7YiG23hii-1" target="O7Utzwy5mZE7YiG23hii-12">
          <mxGeometry width="160" relative="1" as="geometry">
            <mxPoint x="520" y="240" as="sourcePoint" />
            <mxPoint x="590" y="140" as="targetPoint" />
            <Array as="points">
              <mxPoint x="520" y="159" />
            </Array>
          </mxGeometry>
        </mxCell>
        <mxCell id="O7Utzwy5mZE7YiG23hii-18" value="CatPotion" style="swimlane;fontStyle=1;align=center;verticalAlign=top;childLayout=stackLayout;horizontal=1;startSize=26;horizontalStack=0;resizeParent=1;resizeParentMax=0;resizeLast=0;collapsible=1;marginBottom=0;" vertex="1" parent="O7Utzwy5mZE7YiG23hii-1">
          <mxGeometry x="440" y="240" width="160" height="54" as="geometry" />
        </mxCell>
        <mxCell id="O7Utzwy5mZE7YiG23hii-19" value="+takeThePotion(String)" style="text;strokeColor=none;fillColor=none;align=left;verticalAlign=top;spacingLeft=4;spacingRight=4;overflow=hidden;rotatable=0;points=[[0,0.5],[1,0.5]];portConstraint=eastwest;" vertex="1" parent="O7Utzwy5mZE7YiG23hii-18">
          <mxGeometry y="26" width="160" height="26" as="geometry" />
        </mxCell>
        <mxCell id="O7Utzwy5mZE7YiG23hii-20" value="" style="line;strokeWidth=1;fillColor=none;align=left;verticalAlign=middle;spacingTop=-1;spacingLeft=3;spacingRight=3;rotatable=0;labelPosition=right;points=[];portConstraint=eastwest;" vertex="1" parent="O7Utzwy5mZE7YiG23hii-18">
          <mxGeometry y="52" width="160" height="2" as="geometry" />
        </mxCell>
        <mxCell id="O7Utzwy5mZE7YiG23hii-21" value="FactoryPotion" style="swimlane;fontStyle=1;align=center;verticalAlign=top;childLayout=stackLayout;horizontal=1;startSize=26;horizontalStack=0;resizeParent=1;resizeParentMax=0;resizeLast=0;collapsible=1;marginBottom=0;" vertex="1" parent="O7Utzwy5mZE7YiG23hii-1">
          <mxGeometry x="300" y="360" width="200" height="60" as="geometry" />
        </mxCell>
        <mxCell id="O7Utzwy5mZE7YiG23hii-23" value="" style="line;strokeWidth=1;fillColor=none;align=left;verticalAlign=middle;spacingTop=-1;spacingLeft=3;spacingRight=3;rotatable=0;labelPosition=right;points=[];portConstraint=eastwest;" vertex="1" parent="O7Utzwy5mZE7YiG23hii-21">
          <mxGeometry y="26" width="200" height="8" as="geometry" />
        </mxCell>
        <mxCell id="O7Utzwy5mZE7YiG23hii-24" value="+potionCreator(): PotionInterface" style="text;strokeColor=none;fillColor=none;align=left;verticalAlign=top;spacingLeft=4;spacingRight=4;overflow=hidden;rotatable=0;points=[[0,0.5],[1,0.5]];portConstraint=eastwest;" vertex="1" parent="O7Utzwy5mZE7YiG23hii-21">
          <mxGeometry y="34" width="200" height="26" as="geometry" />
        </mxCell>
        <mxCell id="O7Utzwy5mZE7YiG23hii-29" value="return" style="html=1;verticalAlign=bottom;endArrow=open;dashed=1;endSize=8;exitX=0.5;exitY=0;exitDx=0;exitDy=0;entryX=1;entryY=0.5;entryDx=0;entryDy=0;" edge="1" parent="O7Utzwy5mZE7YiG23hii-1" source="O7Utzwy5mZE7YiG23hii-21" target="O7Utzwy5mZE7YiG23hii-17">
          <mxGeometry x="-0.5041" relative="1" as="geometry">
            <mxPoint x="460" y="360" as="sourcePoint" />
            <mxPoint x="400" y="280" as="targetPoint" />
            <Array as="points">
              <mxPoint x="400" y="279" />
            </Array>
            <mxPoint as="offset" />
          </mxGeometry>
        </mxCell>
        <mxCell id="O7Utzwy5mZE7YiG23hii-31" value="" style="html=1;verticalAlign=bottom;endArrow=open;dashed=1;endSize=8;exitX=0.5;exitY=0;exitDx=0;exitDy=0;entryX=0;entryY=0.5;entryDx=0;entryDy=0;" edge="1" parent="O7Utzwy5mZE7YiG23hii-1" target="O7Utzwy5mZE7YiG23hii-19">
          <mxGeometry relative="1" as="geometry">
            <mxPoint x="400" y="360" as="sourcePoint" />
            <mxPoint x="360" y="279" as="targetPoint" />
            <Array as="points">
              <mxPoint x="400" y="279" />
            </Array>
          </mxGeometry>
        </mxCell>
      </root>
    </mxGraphModel>
  </diagram>
  <diagram id="tp5XQ8kabSH6hg6iyXon" name="Prototype">
    <mxGraphModel dx="1422" dy="762" grid="1" gridSize="10" guides="1" tooltips="1" connect="1" arrows="1" fold="1" page="1" pageScale="1" pageWidth="850" pageHeight="1100" math="0" shadow="0">
      <root>
        <mxCell id="Cwjt2Mr_A4tokDuIHUSp-0" />
        <mxCell id="Cwjt2Mr_A4tokDuIHUSp-1" parent="Cwjt2Mr_A4tokDuIHUSp-0" />
        <mxCell id="VxoK8_BGCkYqRZuCWAu5-0" value="Employee" style="swimlane;fontStyle=1;align=center;verticalAlign=top;childLayout=stackLayout;horizontal=1;startSize=26;horizontalStack=0;resizeParent=1;resizeParentMax=0;resizeLast=0;collapsible=1;marginBottom=0;" vertex="1" parent="Cwjt2Mr_A4tokDuIHUSp-1">
          <mxGeometry x="440" y="160" width="240" height="170" as="geometry" />
        </mxCell>
        <mxCell id="VxoK8_BGCkYqRZuCWAu5-1" value="-nameSurname: String" style="text;strokeColor=none;fillColor=none;align=left;verticalAlign=top;spacingLeft=4;spacingRight=4;overflow=hidden;rotatable=0;points=[[0,0.5],[1,0.5]];portConstraint=eastwest;" vertex="1" parent="VxoK8_BGCkYqRZuCWAu5-0">
          <mxGeometry y="26" width="240" height="26" as="geometry" />
        </mxCell>
        <mxCell id="VxoK8_BGCkYqRZuCWAu5-4" value="-position: String" style="text;strokeColor=none;fillColor=none;align=left;verticalAlign=top;spacingLeft=4;spacingRight=4;overflow=hidden;rotatable=0;points=[[0,0.5],[1,0.5]];portConstraint=eastwest;" vertex="1" parent="VxoK8_BGCkYqRZuCWAu5-0">
          <mxGeometry y="52" width="240" height="26" as="geometry" />
        </mxCell>
        <mxCell id="VxoK8_BGCkYqRZuCWAu5-5" value="-salary: double" style="text;strokeColor=none;fillColor=none;align=left;verticalAlign=top;spacingLeft=4;spacingRight=4;overflow=hidden;rotatable=0;points=[[0,0.5],[1,0.5]];portConstraint=eastwest;" vertex="1" parent="VxoK8_BGCkYqRZuCWAu5-0">
          <mxGeometry y="78" width="240" height="26" as="geometry" />
        </mxCell>
        <mxCell id="VxoK8_BGCkYqRZuCWAu5-2" value="" style="line;strokeWidth=1;fillColor=none;align=left;verticalAlign=middle;spacingTop=-1;spacingLeft=3;spacingRight=3;rotatable=0;labelPosition=right;points=[];portConstraint=eastwest;" vertex="1" parent="VxoK8_BGCkYqRZuCWAu5-0">
          <mxGeometry y="104" width="240" height="6" as="geometry" />
        </mxCell>
        <mxCell id="VxoK8_BGCkYqRZuCWAu5-6" value="+ clone(): Employee" style="text;strokeColor=none;fillColor=none;align=left;verticalAlign=top;spacingLeft=4;spacingRight=4;overflow=hidden;rotatable=0;points=[[0,0.5],[1,0.5]];portConstraint=eastwest;" vertex="1" parent="VxoK8_BGCkYqRZuCWAu5-0">
          <mxGeometry y="110" width="240" height="30" as="geometry" />
        </mxCell>
        <mxCell id="VxoK8_BGCkYqRZuCWAu5-3" value="+ Employee(nameSurname,position,salary)" style="text;strokeColor=none;fillColor=none;align=left;verticalAlign=top;spacingLeft=4;spacingRight=4;overflow=hidden;rotatable=0;points=[[0,0.5],[1,0.5]];portConstraint=eastwest;" vertex="1" parent="VxoK8_BGCkYqRZuCWAu5-0">
          <mxGeometry y="140" width="240" height="30" as="geometry" />
        </mxCell>
        <mxCell id="VxoK8_BGCkYqRZuCWAu5-7" value="«interface»&lt;br&gt;&lt;span style=&quot;font-family: &amp;#34;jetbrains mono&amp;#34; , monospace&quot;&gt;Cloneable&lt;/span&gt;" style="html=1;" vertex="1" parent="Cwjt2Mr_A4tokDuIHUSp-1">
          <mxGeometry x="645" y="80" width="115" height="40" as="geometry" />
        </mxCell>
        <mxCell id="VxoK8_BGCkYqRZuCWAu5-8" value="MyPtototype" style="swimlane;fontStyle=1;align=center;verticalAlign=top;childLayout=stackLayout;horizontal=1;startSize=26;horizontalStack=0;resizeParent=1;resizeParentMax=0;resizeLast=0;collapsible=1;marginBottom=0;" vertex="1" parent="Cwjt2Mr_A4tokDuIHUSp-1">
          <mxGeometry x="60" y="199" width="260" height="112" as="geometry" />
        </mxCell>
        <mxCell id="VxoK8_BGCkYqRZuCWAu5-9" value="- Employee" style="text;strokeColor=none;fillColor=none;align=left;verticalAlign=top;spacingLeft=4;spacingRight=4;overflow=hidden;rotatable=0;points=[[0,0.5],[1,0.5]];portConstraint=eastwest;" vertex="1" parent="VxoK8_BGCkYqRZuCWAu5-8">
          <mxGeometry y="26" width="260" height="26" as="geometry" />
        </mxCell>
        <mxCell id="VxoK8_BGCkYqRZuCWAu5-10" value="" style="line;strokeWidth=1;fillColor=none;align=left;verticalAlign=middle;spacingTop=-1;spacingLeft=3;spacingRight=3;rotatable=0;labelPosition=right;points=[];portConstraint=eastwest;" vertex="1" parent="VxoK8_BGCkYqRZuCWAu5-8">
          <mxGeometry y="52" width="260" height="8" as="geometry" />
        </mxCell>
        <mxCell id="VxoK8_BGCkYqRZuCWAu5-12" value="+setEmployee(Employee): Employee.clone()" style="text;strokeColor=none;fillColor=none;align=left;verticalAlign=top;spacingLeft=4;spacingRight=4;overflow=hidden;rotatable=0;points=[[0,0.5],[1,0.5]];portConstraint=eastwest;" vertex="1" parent="VxoK8_BGCkYqRZuCWAu5-8">
          <mxGeometry y="60" width="260" height="26" as="geometry" />
        </mxCell>
        <mxCell id="VxoK8_BGCkYqRZuCWAu5-11" value="+ getEmployee(): Employ" style="text;strokeColor=none;fillColor=none;align=left;verticalAlign=top;spacingLeft=4;spacingRight=4;overflow=hidden;rotatable=0;points=[[0,0.5],[1,0.5]];portConstraint=eastwest;" vertex="1" parent="VxoK8_BGCkYqRZuCWAu5-8">
          <mxGeometry y="86" width="260" height="26" as="geometry" />
        </mxCell>
        <mxCell id="VxoK8_BGCkYqRZuCWAu5-13" value="" style="endArrow=diamondThin;endFill=0;endSize=24;html=1;entryX=-0.008;entryY=0.115;entryDx=0;entryDy=0;entryPerimeter=0;" edge="1" parent="Cwjt2Mr_A4tokDuIHUSp-1" target="VxoK8_BGCkYqRZuCWAu5-5">
          <mxGeometry width="160" relative="1" as="geometry">
            <mxPoint x="320" y="241" as="sourcePoint" />
            <mxPoint x="500" y="350" as="targetPoint" />
          </mxGeometry>
        </mxCell>
        <mxCell id="VxoK8_BGCkYqRZuCWAu5-14" value="" style="endArrow=block;dashed=1;endFill=0;endSize=12;html=1;exitX=0.667;exitY=0;exitDx=0;exitDy=0;entryX=0;entryY=0.5;entryDx=0;entryDy=0;exitPerimeter=0;" edge="1" parent="Cwjt2Mr_A4tokDuIHUSp-1" source="VxoK8_BGCkYqRZuCWAu5-0" target="VxoK8_BGCkYqRZuCWAu5-7">
          <mxGeometry width="160" relative="1" as="geometry">
            <mxPoint x="340" y="350" as="sourcePoint" />
            <mxPoint x="500" y="350" as="targetPoint" />
            <Array as="points">
              <mxPoint x="600" y="100" />
            </Array>
          </mxGeometry>
        </mxCell>
        <mxCell id="VxoK8_BGCkYqRZuCWAu5-16" value="&lt;p style=&quot;margin: 0px ; margin-top: 4px ; text-align: center ; text-decoration: underline&quot;&gt;&lt;b&gt;Object:&lt;/b&gt;&lt;/p&gt;&lt;div style=&quot;text-align: center&quot;&gt;&lt;span&gt;Employee.clone()&lt;/span&gt;&lt;/div&gt;&lt;hr&gt;&lt;p style=&quot;margin: 0px ; margin-left: 8px&quot;&gt;&lt;br&gt;&lt;/p&gt;" style="verticalAlign=top;align=left;overflow=fill;fontSize=12;fontFamily=Helvetica;html=1;" vertex="1" parent="Cwjt2Mr_A4tokDuIHUSp-1">
          <mxGeometry x="115" y="400" width="150" height="30" as="geometry" />
        </mxCell>
        <mxCell id="VxoK8_BGCkYqRZuCWAu5-17" value="return" style="html=1;verticalAlign=bottom;endArrow=open;dashed=1;endSize=8;" edge="1" parent="Cwjt2Mr_A4tokDuIHUSp-1" source="VxoK8_BGCkYqRZuCWAu5-8" target="VxoK8_BGCkYqRZuCWAu5-16">
          <mxGeometry relative="1" as="geometry">
            <mxPoint x="460" y="350" as="sourcePoint" />
            <mxPoint x="380" y="350" as="targetPoint" />
          </mxGeometry>
        </mxCell>
      </root>
    </mxGraphModel>
  </diagram>
  <diagram id="n5Cl6A-Sf2w3ywtyTNzq" name="Singleton">
    <mxGraphModel dx="1422" dy="762" grid="1" gridSize="10" guides="1" tooltips="1" connect="1" arrows="1" fold="1" page="1" pageScale="1" pageWidth="850" pageHeight="1100" math="0" shadow="0">
      <root>
        <mxCell id="o1r6gX_6pYP9azdCEK36-0" />
        <mxCell id="o1r6gX_6pYP9azdCEK36-1" parent="o1r6gX_6pYP9azdCEK36-0" />
        <mxCell id="o1r6gX_6pYP9azdCEK36-2" value="MySingleton" style="swimlane;fontStyle=1;align=center;verticalAlign=top;childLayout=stackLayout;horizontal=1;startSize=26;horizontalStack=0;resizeParent=1;resizeParentMax=0;resizeLast=0;collapsible=1;marginBottom=0;" vertex="1" parent="o1r6gX_6pYP9azdCEK36-1">
          <mxGeometry x="440" y="200" width="160" height="142" as="geometry" />
        </mxCell>
        <mxCell id="o1r6gX_6pYP9azdCEK36-3" value="+ instance: MySingleton" style="text;strokeColor=none;fillColor=none;align=left;verticalAlign=top;spacingLeft=4;spacingRight=4;overflow=hidden;rotatable=0;points=[[0,0.5],[1,0.5]];portConstraint=eastwest;" vertex="1" parent="o1r6gX_6pYP9azdCEK36-2">
          <mxGeometry y="26" width="160" height="26" as="geometry" />
        </mxCell>
        <mxCell id="o1r6gX_6pYP9azdCEK36-6" value="+int value" style="text;strokeColor=none;fillColor=none;align=left;verticalAlign=top;spacingLeft=4;spacingRight=4;overflow=hidden;rotatable=0;points=[[0,0.5],[1,0.5]];portConstraint=eastwest;" vertex="1" parent="o1r6gX_6pYP9azdCEK36-2">
          <mxGeometry y="52" width="160" height="26" as="geometry" />
        </mxCell>
        <mxCell id="o1r6gX_6pYP9azdCEK36-4" value="" style="line;strokeWidth=1;fillColor=none;align=left;verticalAlign=middle;spacingTop=-1;spacingLeft=3;spacingRight=3;rotatable=0;labelPosition=right;points=[];portConstraint=eastwest;" vertex="1" parent="o1r6gX_6pYP9azdCEK36-2">
          <mxGeometry y="78" width="160" height="12" as="geometry" />
        </mxCell>
        <mxCell id="o1r6gX_6pYP9azdCEK36-7" value="-MySingleton(int value)" style="text;strokeColor=none;fillColor=none;align=left;verticalAlign=top;spacingLeft=4;spacingRight=4;overflow=hidden;rotatable=0;points=[[0,0.5],[1,0.5]];portConstraint=eastwest;" vertex="1" parent="o1r6gX_6pYP9azdCEK36-2">
          <mxGeometry y="90" width="160" height="26" as="geometry" />
        </mxCell>
        <mxCell id="o1r6gX_6pYP9azdCEK36-5" value="+ getInstance(int value)" style="text;strokeColor=none;fillColor=none;align=left;verticalAlign=top;spacingLeft=4;spacingRight=4;overflow=hidden;rotatable=0;points=[[0,0.5],[1,0.5]];portConstraint=eastwest;" vertex="1" parent="o1r6gX_6pYP9azdCEK36-2">
          <mxGeometry y="116" width="160" height="26" as="geometry" />
        </mxCell>
        <mxCell id="o1r6gX_6pYP9azdCEK36-8" value="MainSingleton" style="swimlane;fontStyle=1;align=center;verticalAlign=top;childLayout=stackLayout;horizontal=1;startSize=26;horizontalStack=0;resizeParent=1;resizeParentMax=0;resizeLast=0;collapsible=1;marginBottom=0;" vertex="1" parent="o1r6gX_6pYP9azdCEK36-1">
          <mxGeometry x="160" y="200" width="160" height="60" as="geometry" />
        </mxCell>
        <mxCell id="o1r6gX_6pYP9azdCEK36-10" value="" style="line;strokeWidth=1;fillColor=none;align=left;verticalAlign=middle;spacingTop=-1;spacingLeft=3;spacingRight=3;rotatable=0;labelPosition=right;points=[];portConstraint=eastwest;" vertex="1" parent="o1r6gX_6pYP9azdCEK36-8">
          <mxGeometry y="26" width="160" height="8" as="geometry" />
        </mxCell>
        <mxCell id="o1r6gX_6pYP9azdCEK36-11" value="+ main(): void" style="text;strokeColor=none;fillColor=none;align=left;verticalAlign=top;spacingLeft=4;spacingRight=4;overflow=hidden;rotatable=0;points=[[0,0.5],[1,0.5]];portConstraint=eastwest;" vertex="1" parent="o1r6gX_6pYP9azdCEK36-8">
          <mxGeometry y="34" width="160" height="26" as="geometry" />
        </mxCell>
        <mxCell id="o1r6gX_6pYP9azdCEK36-12" value="return" style="html=1;verticalAlign=bottom;endArrow=open;dashed=1;endSize=8;entryX=0;entryY=0;entryDx=0;entryDy=0;exitX=1;exitY=0;exitDx=0;exitDy=0;" edge="1" parent="o1r6gX_6pYP9azdCEK36-1" source="o1r6gX_6pYP9azdCEK36-8" target="o1r6gX_6pYP9azdCEK36-2">
          <mxGeometry relative="1" as="geometry">
            <mxPoint x="321" y="200" as="sourcePoint" />
            <mxPoint x="340" y="199" as="targetPoint" />
          </mxGeometry>
        </mxCell>
        <mxCell id="o1r6gX_6pYP9azdCEK36-13" value="" style="endArrow=none;dashed=1;html=1;exitX=0;exitY=1.077;exitDx=0;exitDy=0;exitPerimeter=0;" edge="1" parent="o1r6gX_6pYP9azdCEK36-1" source="o1r6gX_6pYP9azdCEK36-6">
          <mxGeometry width="50" height="50" relative="1" as="geometry">
            <mxPoint x="400" y="420" as="sourcePoint" />
            <mxPoint x="380" y="200" as="targetPoint" />
            <Array as="points">
              <mxPoint x="380" y="280" />
            </Array>
          </mxGeometry>
        </mxCell>
      </root>
    </mxGraphModel>
  </diagram>
  <diagram id="8R0oeUVCL2D_up6K5G0k" name="Page-5">
    <mxGraphModel dx="1422" dy="762" grid="1" gridSize="10" guides="1" tooltips="1" connect="1" arrows="1" fold="1" page="1" pageScale="1" pageWidth="850" pageHeight="1100" math="0" shadow="0">
      <root>
        <mxCell id="RX6xVXyOwU61pV1yKHuI-0" />
        <mxCell id="RX6xVXyOwU61pV1yKHuI-1" parent="RX6xVXyOwU61pV1yKHuI-0" />
      </root>
    </mxGraphModel>
  </diagram>
</mxfile>
